Coordinates
version=1
nRows=43
nColumns=12
inDegrees=yes

Units are S.I. units (second, meters, Newtons, ...)
Angles are in degrees

endheader
time	SC_y	SC_z	SC_x	AC_y	AC_z	AC_x	GH_y	GH_z	GH_yy	EL_x	PS_y
       0.0              -38.18          26.21          45.38          42.54         -8.153          19.44          38.94          33.07          157.5          128.2          40.85
   0.02605              -38.18           26.2          45.38          42.54          -8.15          19.44          38.93          33.07          157.5          128.2          40.85
    0.0521              -38.19           26.2          45.38          42.55         -8.148          19.43          38.91          33.08          157.5          128.2          40.85
   0.07815              -38.19           26.2          45.37          42.55         -8.146          19.43          38.89          33.08          157.4          128.2          40.86
    0.1042              -38.19           26.2          45.37          42.55         -8.143          19.42          38.88          33.09          157.4          128.2          40.86
    0.1303               -38.2           26.2          45.36          42.55         -8.141          19.42          38.86           33.1          157.4          128.2          40.86
    0.1563               -38.2           26.2          45.35          42.55         -8.138          19.41          38.84           33.1          157.4          128.2          40.86
    0.1824               -38.2           26.2          45.35          42.55         -8.135          19.41          38.82          33.11          157.4          128.2          40.87
    0.2084              -38.21           26.2          45.34          42.55         -8.131           19.4          38.79          33.12          157.4          128.2          40.87
    0.2345              -38.21          26.19          45.34          42.56         -8.128          19.39          38.77          33.12          157.3          128.2          40.87
    0.2605              -38.22          26.19          45.33          42.56         -8.124          19.39          38.74          33.13          157.3          128.2          40.88
    0.2866              -38.22          26.19          45.32          42.56          -8.12          19.38          38.71          33.14          157.3          128.2          40.88
    0.3126              -38.23          26.19          45.31          42.56         -8.115          19.37          38.68          33.15          157.3          128.2          40.89
    0.3387              -38.24          26.19           45.3          42.57         -8.111          19.36          38.65          33.16          157.2          128.2          40.89
    0.3647              -38.24          26.18          45.29          42.57         -8.106          19.35          38.61          33.17          157.2          128.2           40.9
    0.3908              -38.25          26.18          45.28          42.57           -8.1          19.34          38.57          33.18          157.2          128.2           40.9
    0.4168              -38.26          26.18          45.27          42.57         -8.094          19.33          38.53           33.2          157.1          128.2          40.91
    0.4429              -38.27          26.18          45.26          42.58         -8.087          19.32          38.48          33.21          157.1          128.2          40.91
    0.4689              -38.28          26.17          45.24          42.58          -8.08          19.31          38.43          33.23          157.1          128.2          40.92
     0.495              -38.29          26.17          45.23          42.59         -8.072          19.29          38.38          33.24          157.0          128.2          40.93
     0.521               -38.3          26.17          45.21          42.59         -8.063          19.28          38.32          33.26          157.0          128.2          40.94
    0.5471              -38.31          26.16          45.19           42.6         -8.054          19.26          38.25          33.28          156.9          128.2          40.95
    0.5731              -38.33          26.16          45.17           42.6         -8.043          19.24          38.17          33.31          156.9          128.2          40.96
    0.5992              -38.34          26.15          45.15          42.61         -8.032          19.22          38.09          33.33          156.8          128.2          40.97
    0.6252              -38.36          26.15          45.12          42.62         -8.018          19.19           38.0          33.36          156.7          128.2          40.98
    0.6513              -38.38          26.14          45.09          42.62         -8.004          19.17           37.9          33.39          156.6          128.2          40.99
    0.6773               -38.4          26.13          45.06          42.63         -7.988          19.14          37.78          33.43          156.6          128.2          41.01
    0.7034              -38.43          26.12          45.02          42.64         -7.969           19.1          37.65          33.47          156.5          128.2          41.03
    0.7294              -38.46          26.11          44.98          42.65         -7.949          19.07          37.51          33.51          156.3          128.2          41.05
    0.7555              -38.49           26.1          44.94          42.67         -7.925          19.02          37.34          33.56          156.2          128.2          41.07
    0.7815              -38.52          26.09          44.89          42.68         -7.898          18.97          37.16          33.62          156.1          128.2           41.1
    0.8076              -38.57          26.08          44.82           42.7         -7.868          18.92          36.94          33.69          155.9          128.2          41.13
    0.8336              -38.61          26.06          44.76          42.72         -7.832          18.85          36.69          33.76          155.7          128.2          41.16
    0.8597              -38.67          26.04          44.67          42.74         -7.791          18.78           36.4          33.85          155.5          128.2           41.2
    0.8857              -38.74          26.02          44.58          42.77         -7.742          18.69          36.06          33.96          155.2          128.2          41.25
    0.9118              -38.81           26.0          44.47           42.8         -7.685          18.58          35.66          34.08          154.9          128.3           41.3
    0.9378               -38.9          25.97          44.34          42.84         -7.618          18.46          35.19          34.23          154.5          128.3          41.37
    0.9639              -39.01          25.93          44.18          42.88         -7.537          18.31          34.62           34.4          154.0          128.3          41.45
    0.9899              -39.15          25.89          43.98          42.93         -7.438          18.13          33.93          34.62          153.5          128.3          41.54
     1.016              -39.31          25.83          43.75           43.0         -7.319          17.91          33.08          34.88          152.8          128.3          41.66
     1.042              -39.51          25.77          43.46          43.08         -7.171          17.64          32.04           35.2          152.0          128.4          41.81
     1.068              -39.76          25.68           43.1          43.18         -6.986           17.3          30.75           35.6          151.0          128.4          41.98
     1.094              -40.07          25.58          42.64          43.31         -6.754          16.87          29.12           36.1          149.7          128.5          42.21
